<svg preserveAspectRatio="none" width="100%" height="100%" overflow="visible" style="display: block;" viewBox="0 0 32 32" fill="none" xmlns="http://www.w3.org/2000/svg">
<g id="SVG">
<path id="Vector" d="M28.9733 24L18.3067 5.33333C18.0741 4.92294 17.7368 4.58158 17.3292 4.34409C16.9217 4.1066 16.4584 3.98147 15.9867 3.98147C15.5149 3.98147 15.0517 4.1066 14.6441 4.34409C14.2365 4.58158 13.8992 4.92294 13.6667 5.33333L3 24C2.76491 24.4071 2.64164 24.8692 2.64268 25.3393C2.64372 25.8095 2.76904 26.271 3.00593 26.6771C3.24282 27.0832 3.58286 27.4194 3.99159 27.6518C4.40032 27.8841 4.86321 28.0042 5.33333 28H26.6667C27.1345 27.9995 27.594 27.876 27.999 27.6417C28.404 27.4075 28.7403 27.0708 28.974 26.6655C29.2077 26.2602 29.3307 25.8005 29.3306 25.3327C29.3305 24.8648 29.2073 24.4052 28.9733 24Z" stroke="var(--stroke-0, #F87171)" stroke-width="2.66667" stroke-linecap="round" stroke-linejoin="round"/>
<path id="Vector_2" d="M16 12V17.3333" stroke="var(--stroke-0, #F87171)" stroke-width="2.66667" stroke-linecap="round" stroke-linejoin="round"/>
<path id="Vector_3" d="M16 22.6667H16.0133" stroke="var(--stroke-0, #F87171)" stroke-width="2.66667" stroke-linecap="round" stroke-linejoin="round"/>
</g>
</svg>
