<svg preserveAspectRatio="none" width="100%" height="100%" overflow="visible" style="display: block;" viewBox="0 0 31 31" fill="none" xmlns="http://www.w3.org/2000/svg">
<g id="SVG">
<path id="Vector" d="M25.1807 12.5902C25.1807 18.8767 18.2067 25.4238 15.8649 27.4459C15.6467 27.6099 15.3812 27.6986 15.1082 27.6986C14.8352 27.6986 14.5697 27.6099 14.3515 27.4459C12.0097 25.4238 5.03574 18.8767 5.03574 12.5902C5.03574 9.91884 6.09694 7.35687 7.9859 5.46792C9.87485 3.57897 12.4368 2.51776 15.1082 2.51776C17.7796 2.51776 20.3416 3.57897 22.2305 5.46792C24.1195 7.35687 25.1807 9.91884 25.1807 12.5902Z" stroke="var(--stroke-0, #F4CE71)" stroke-width="2.51812" stroke-linecap="round" stroke-linejoin="round"/>
<path id="Vector_2" d="M15.1087 16.3679C17.1948 16.3679 18.8859 14.6768 18.8859 12.5907C18.8859 10.5046 17.1948 8.81355 15.1087 8.81355C13.0226 8.81355 11.3315 10.5046 11.3315 12.5907C11.3315 14.6768 13.0226 16.3679 15.1087 16.3679Z" stroke="var(--stroke-0, #F4CE71)" stroke-width="2.51812" stroke-linecap="round" stroke-linejoin="round"/>
</g>
</svg>
