<svg preserveAspectRatio="none" width="100%" height="100%" overflow="visible" style="display: block;" viewBox="0 0 32 32" fill="none" xmlns="http://www.w3.org/2000/svg">
<g id="SVG">
<path id="Vector" d="M26.6667 13.3333C26.6667 19.9907 19.2813 26.924 16.8013 29.0653C16.5703 29.2391 16.2891 29.333 16 29.333C15.7109 29.333 15.4297 29.2391 15.1987 29.0653C12.7187 26.924 5.33333 19.9907 5.33333 13.3333C5.33333 10.5044 6.45714 7.79125 8.45753 5.79086C10.4579 3.79047 13.171 2.66667 16 2.66667C18.829 2.66667 21.5421 3.79047 23.5425 5.79086C25.5429 7.79125 26.6667 10.5044 26.6667 13.3333Z" stroke="var(--stroke-0, #F4CE71)" stroke-width="2.66667" stroke-linecap="round" stroke-linejoin="round"/>
<path id="Vector_2" d="M16 17.3333C18.2091 17.3333 20 15.5425 20 13.3333C20 11.1242 18.2091 9.33333 16 9.33333C13.7909 9.33333 12 11.1242 12 13.3333C12 15.5425 13.7909 17.3333 16 17.3333Z" stroke="var(--stroke-0, #F4CE71)" stroke-width="2.66667" stroke-linecap="round" stroke-linejoin="round"/>
</g>
</svg>
