<svg preserveAspectRatio="none" width="100%" height="100%" overflow="visible" style="display: block;" viewBox="0 0 30 30" fill="none" xmlns="http://www.w3.org/2000/svg">
<g id="SVG">
<path id="Vector" d="M24.31 12.1551C24.31 18.2242 17.5772 24.5449 15.3164 26.497C15.1057 26.6554 14.8494 26.741 14.5858 26.741C14.3223 26.741 14.0659 26.6554 13.8553 26.497C11.5944 24.5449 4.86166 18.2242 4.86166 12.1551C4.86166 9.57605 5.88617 7.10267 7.7098 5.27903C9.53344 3.4554 12.0068 2.43089 14.5858 2.43089C17.1648 2.43089 19.6382 3.4554 21.4619 5.27903C23.2855 7.10267 24.31 9.57605 24.31 12.1551Z" stroke="var(--stroke-0, #F4CE71)" stroke-width="2.43104" stroke-linecap="round" stroke-linejoin="round"/>
<path id="Vector_2" d="M14.5877 15.8021C16.6017 15.8021 18.2343 14.1694 18.2343 12.1555C18.2343 10.1416 16.6017 8.50893 14.5877 8.50893C12.5738 8.50893 10.9412 10.1416 10.9412 12.1555C10.9412 14.1694 12.5738 15.8021 14.5877 15.8021Z" stroke="var(--stroke-0, #F4CE71)" stroke-width="2.43104" stroke-linecap="round" stroke-linejoin="round"/>
</g>
</svg>
